<?xml version="1.0" encoding="UTF-8"?>
<!DOCTYPE svg PUBLIC "-//W3C//DTD SVG 1.1//EN" "http://www.w3.org/Graphics/SVG/1.1/DTD/svg11.dtd">
<svg xmlns="http://www.w3.org/2000/svg" version="1.1" width="1024px" height="1024px" style="shape-rendering:geometricPrecision; text-rendering:geometricPrecision; image-rendering:optimizeQuality; fill-rule:evenodd; clip-rule:evenodd" xmlns:xlink="http://www.w3.org/1999/xlink">
<g><path style="opacity:1" fill="#000000" d="M 536.5,126.5 C 564.799,154.967 592.966,183.633 621,212.5C 622.128,214.345 622.628,216.345 622.5,218.5C 613.535,219.581 604.535,219.748 595.5,219C 592.624,218.562 589.957,217.562 587.5,216C 577.363,206.864 567.53,197.364 558,187.5C 551.039,178.87 543.705,170.537 536,162.5C 529.031,170.47 521.698,178.136 514,185.5C 505.911,196.924 496.411,207.091 485.5,216C 473.074,218.828 460.574,219.662 448,218.5C 447.685,217.092 448.018,215.759 449,214.5C 477.673,184.66 506.84,155.327 536.5,126.5 Z"/></g>
<g><path style="opacity:1" fill="#000000" d="M 534.5,182.5 C 539.805,183.595 545.138,184.762 550.5,186C 553.308,186.598 555.808,187.765 558,189.5C 558.306,206.028 559.139,222.528 560.5,239C 560.876,252.211 556.709,263.711 548,273.5C 528.612,293.223 508.945,312.556 489,331.5C 487.646,335.363 487.146,339.363 487.5,343.5C 476.181,346.667 464.847,349.501 453.5,352C 453.653,338.205 458.153,326.039 467,315.5C 487.762,295.741 507.429,275.075 526,253.5C 528.782,249.26 530.115,244.593 530,239.5C 529.814,220.288 531.314,201.288 534.5,182.5 Z"/></g>
<g><path style="opacity:1" fill="#000000" d="M 502.5,219.5 C 503.822,219.33 504.989,219.663 506,220.5C 509.973,232.149 509.306,243.482 504,254.5C 480.961,276.538 458.961,299.538 438,323.5C 435.124,327.919 432.79,332.586 431,337.5C 430.015,345.138 429.515,352.804 429.5,360.5C 419.65,362.395 410.15,365.395 401,369.5C 397.655,344.174 403.655,321.507 419,301.5C 426.032,294.803 432.698,287.803 439,280.5C 460.009,259.991 481.176,239.657 502.5,219.5 Z"/></g>
<g><path style="opacity:1" fill="#000000" d="M 645.5,226.5 C 669.522,225.419 691.189,231.919 710.5,246C 723.983,259.48 735.149,274.646 744,291.5C 745.674,297.521 747.008,303.521 748,309.5C 726.207,293.258 701.707,286.758 674.5,290C 621.868,303.575 569.535,318.242 517.5,334C 515.167,334.667 512.833,334.667 510.5,334C 514.5,331 518.5,328 522.5,325C 534.791,314.009 546.457,302.342 557.5,290C 559.754,288.623 561.92,287.123 564,285.5C 564.617,286.449 564.451,287.282 563.5,288C 567.812,287.967 572.145,287.634 576.5,287C 600.828,279.418 625.495,273.084 650.5,268C 664.688,265.971 678.855,266.137 693,268.5C 694.833,268.167 696.667,267.833 698.5,267.5C 691.59,258.711 682.59,253.544 671.5,252C 656.723,249.849 642.057,250.516 627.5,254C 610.106,258.27 592.773,262.77 575.5,267.5C 575.167,267 574.833,266.5 574.5,266C 576.493,258.365 578.159,250.698 579.5,243C 586.637,241.066 593.637,238.732 600.5,236C 610.789,234.089 621.122,232.422 631.5,231C 636.373,229.763 641.04,228.263 645.5,226.5 Z"/></g>
<g><path style="opacity:1" fill="#000000" d="M 412.5,270.5 C 415.85,270.335 419.183,270.502 422.5,271C 411.146,280.355 401.146,291.022 392.5,303C 388.833,303.333 385.167,303.667 381.5,304C 357.118,310.512 332.784,317.179 308.5,324C 296.789,328.379 288.289,336.212 283,347.5C 280.208,357.004 281.875,365.671 288,373.5C 297.765,383.803 309.598,390.636 323.5,394C 339.113,397.975 354.78,398.309 370.5,395C 447.635,373.133 524.635,350.799 601.5,328C 626.742,320.918 652.075,314.252 677.5,308C 730.567,305.402 763.401,329.902 776,381.5C 776.607,388.506 777.273,395.506 778,402.5C 778.942,405.993 780.275,409.326 782,412.5C 781.864,458.38 783.03,504.213 785.5,550C 785.167,550.833 784.833,551.667 784.5,552.5C 782.267,553.742 780.101,555.076 778,556.5C 776.844,577.147 776.177,597.814 776,618.5C 771.524,661.646 749.357,691.812 709.5,709C 701.908,711.864 694.242,714.531 686.5,717C 590.51,742.998 494.51,768.998 398.5,795C 356.159,804.865 317.492,797.198 282.5,772C 255.326,748.815 241.826,719.315 242,683.5C 241.333,583.167 241.333,482.833 242,382.5C 244.78,360.62 252.78,340.954 266,323.5C 279.896,308.13 297.063,298.297 317.5,294C 349.115,285.449 380.782,277.616 412.5,270.5 Z M 680.5,332.5 C 710.329,331.483 731.829,344.149 745,370.5C 746.538,375.448 747.872,380.448 749,385.5C 749.667,396.5 749.667,407.5 749,418.5C 712.091,427.936 675.258,437.769 638.5,448C 596.78,464.597 579.946,495.097 588,539.5C 593.411,560.578 606.245,575.078 626.5,583C 642.829,589.095 659.495,590.095 676.5,586C 701.061,579.535 725.394,572.368 749.5,564.5C 749.667,583.836 749.5,603.17 749,622.5C 742.479,653.699 724.312,675.199 694.5,687C 609.373,709.865 524.373,733.198 439.5,757C 417.693,762.895 395.693,767.895 373.5,772C 337.773,775.427 307.273,764.594 282,739.5C 273.774,730.386 269.441,719.719 269,707.5C 283.512,721.594 300.512,731.594 320,737.5C 338.063,743.938 356.563,745.772 375.5,743C 461.981,720.758 547.815,696.591 633,670.5C 637.815,658.31 633.648,652.476 620.5,653C 544.873,674.49 469.206,695.823 393.5,717C 364.777,725.439 336.777,723.439 309.5,711C 298.348,706.262 288.014,700.262 278.5,693C 270.048,684.929 266.548,675.095 268,663.5C 305.105,695.862 347.605,706.028 395.5,694C 468.962,673.068 542.295,651.734 615.5,630C 618.545,627.552 619.045,624.719 617,621.5C 611.331,615.788 604.497,613.955 596.5,616C 575.309,620.548 554.309,625.881 533.5,632C 483.776,647.265 433.776,661.598 383.5,675C 346.1,681.422 312.1,673.422 281.5,651C 270.791,642.748 266.291,631.914 268,618.5C 296.279,643.709 329.445,655.542 367.5,654C 376.64,653.088 385.64,651.421 394.5,649C 451.632,632.143 508.632,615.81 565.5,600C 572.506,593.427 572.172,587.427 564.5,582C 560.167,581.333 555.833,581.333 551.5,582C 500.087,596.687 448.754,611.687 397.5,627C 352.491,639.452 311.991,630.952 276,601.5C 268.617,593.519 265.784,584.186 267.5,573.5C 296.149,598.108 329.483,609.941 367.5,609C 375.27,607.808 382.936,606.141 390.5,604C 444.205,588.539 497.705,572.706 551,556.5C 552.928,553.149 554.428,549.649 555.5,546C 550.52,538.787 543.854,536.787 535.5,540C 485.716,553.928 436.049,568.261 386.5,583C 362.759,589.619 339.426,588.285 316.5,579C 301.344,573.845 287.844,566.012 276,555.5C 268.817,547.105 266.151,537.439 268,526.5C 279.841,539.852 294.341,549.352 311.5,555C 332.967,563.163 354.967,565.163 377.5,561C 431.788,545.178 486.122,529.511 540.5,514C 548.222,510.728 551.388,504.895 550,496.5C 546.692,492.673 542.526,491.506 537.5,493C 487.212,507.822 436.879,522.489 386.5,537C 350.916,545.524 317.916,539.524 287.5,519C 281.671,513.537 276.171,507.703 271,501.5C 267.097,494.65 265.764,487.317 267,479.5C 272.181,486.347 278.347,492.18 285.5,497C 315.855,516.059 348.521,521.726 383.5,514C 440.28,497.639 496.947,480.973 553.5,464C 558.838,460.491 560.672,455.658 559,449.5C 555.302,445.601 550.802,444.101 545.5,445C 491.049,460.261 436.716,475.928 382.5,492C 342.566,500.726 307.399,491.559 277,464.5C 274.089,461.01 271.422,457.344 269,453.5C 266.611,446.953 265.778,440.286 266.5,433.5C 272.363,440.53 279.03,446.696 286.5,452C 319.493,472.135 354.493,476.802 391.5,466C 469.36,442.047 547.693,419.714 626.5,399C 633.148,395.539 635.981,390.039 635,382.5C 631.806,377.487 627.306,375.654 621.5,377C 538.775,400.464 456.108,424.131 373.5,448C 345.208,452.007 318.875,446.674 294.5,432C 285.333,425.5 277.5,417.667 271,408.5C 268.524,401.359 267.524,394.026 268,386.5C 285.866,406.851 308.366,418.351 335.5,421C 351.759,423.135 367.759,421.802 383.5,417C 450.656,396.726 517.989,377.059 585.5,358C 617.17,349.001 648.837,340.501 680.5,332.5 Z M 766.5,439.5 C 768.5,439.5 770.5,439.5 772.5,439.5C 773.56,469.869 773.726,500.202 773,530.5C 740.92,540.192 708.753,549.692 676.5,559C 654.904,566.685 636.404,562.185 621,545.5C 606.661,520.194 610.495,498.027 632.5,479C 636.007,476.746 639.673,474.746 643.5,473C 675.333,464.042 707.333,455.708 739.5,448C 748.759,445.609 757.759,442.776 766.5,439.5 Z"/></g>
<g><path style="opacity:1" fill="#000000" d="M 383.5,321.5 C 384.239,321.369 384.906,321.536 385.5,322C 384.16,327.042 383.327,332.209 383,337.5C 382.822,349.409 382.322,361.242 381.5,373C 359.393,380.503 337.393,380.17 315.5,372C 308.698,369.183 302.865,365.016 298,359.5C 297.294,357.029 297.627,354.695 299,352.5C 303.998,347.169 309.831,343.003 316.5,340C 332.296,335.179 348.296,331.179 364.5,328C 370.979,325.897 377.313,323.73 383.5,321.5 Z"/></g>
<g><path style="opacity:1" fill="#000000" d="M 657.5,490.5 C 672.634,491.133 681.301,498.966 683.5,514C 680.304,531.853 669.638,539.853 651.5,538C 637.493,531.66 632.993,521.16 638,506.5C 642.32,498.332 648.82,492.999 657.5,490.5 Z"/></g>
</svg>
